<?xml version="1.0" standalone="no"?>
<!DOCTYPE svg PUBLIC "-//W3C//DTD SVG 20010904//EN"
 "http://www.w3.org/TR/2001/REC-SVG-20010904/DTD/svg10.dtd">
<svg version="1.0" xmlns="http://www.w3.org/2000/svg"
 width="1276.000000pt" height="1280.000000pt" viewBox="0 0 1276.000000 1280.000000"
 preserveAspectRatio="xMidYMid meet">
<metadata>
Created by potrace 1.15, written by Peter Selinger 2001-2017
</metadata>
<g transform="translate(0.000000,1280.000000) scale(0.100000,-0.100000)"
fill="#03a9f4" stroke="none">
<path d="M12490 12743 c-255 -159 -545 -349 -747 -490 -128 -90 -234 -163
-237 -163 -3 0 -54 33 -113 74 -466 319 -1017 514 -1633 578 -184 19 -6576 19
-6760 0 -521 -54 -984 -198 -1405 -437 -759 -430 -1303 -1127 -1505 -1930 -21
-82 -49 -220 -62 -305 l-23 -155 0 -3525 c0 -3754 -2 -3580 47 -3840 194
-1034 953 -1912 2000 -2314 318 -122 654 -197 1012 -226 178 -14 6454 -14
6632 0 830 67 1573 394 2143 945 450 435 757 999 869 1595 49 260 47 86 47
3840 l0 3525 -23 155 c-84 553 -302 1041 -663 1487 -100 122 -94 114 -77 108
9 -4 34 16 68 52 30 32 122 130 206 218 83 88 175 187 205 220 30 33 66 73 82
88 15 16 27 32 27 36 0 4 9 16 20 26 11 10 21 28 21 39 1 12 5 6 9 -14 5 -24
7 -5 7 60 0 52 -2 80 -4 61 -3 -19 -8 -30 -11 -24 -23 37 -442 -208 -582 -340
-36 -34 85 90 269 274 l333 337 -33 45 c-19 26 -36 46 -39 46 -3 0 -39 -21
-80 -46z m-2910 -1323 c165 -13 331 -41 470 -81 113 -33 296 -101 323 -122 15
-10 -8 -34 -191 -193 -1703 -1489 -3407 -3447 -4936 -5671 -115 -167 -212
-303 -216 -303 -4 0 -597 352 -1316 783 -720 430 -1340 801 -1378 823 l-69 41
-40 -44 -39 -43 199 -247 c159 -199 1534 -1889 2955 -3635 l209 -256 172 0
c102 0 160 3 142 8 -16 4 -25 8 -19 9 6 0 91 169 189 374 197 410 545 1110
680 1367 253 479 440 826 535 990 21 36 85 148 142 250 58 102 138 241 178
310 40 69 87 150 105 180 17 30 96 161 175 290 79 129 154 253 167 275 13 22
53 85 88 140 35 55 81 127 101 160 112 178 515 789 671 1015 491 712 1053
1452 1628 2145 116 139 443 522 512 600 30 32 51 65 49 72 -10 25 3 13 47 -44
142 -187 246 -426 294 -683 17 -90 18 -276 18 -3555 l0 -3460 -22 -111 c-94
-460 -353 -837 -767 -1116 -281 -188 -610 -306 -964 -343 -206 -22 -6378 -22
-6584 0 -354 37 -683 155 -964 343 -414 279 -673 656 -767 1116 l-22 111 0
3460 c0 3279 1 3465 18 3555 67 356 226 650 493 914 332 328 806 536 1310 575
162 12 6259 13 6424 1z m-3993 -8914 c-3 -8 -1 -17 6 -20 7 -2 4 -5 -5 -5 -10
-1 -18 1 -18 3 0 10 13 36 17 36 3 0 3 -6 0 -14z"/>
</g>
</svg>
